# xmcd CD database file
#
# Track frame offsets:
#	150
#	7875
#	53050
#	72675
#	93050
#
# Disc length: 1294 seconds
#
# Revision: 0
# Processed by: cddbd v1.5.1PL0 Copyright (c) Steve Scherf et al.
# Submitted via: CDex 1.51
#
DISCID=35050c05
DTITLE=光栄 - 三國志満漢全席・七
DYEAR=1994
DGENRE=アニメ
TTITLE0=三國志満漢全席・七
TTITLE1=三國志満漢全席・七
TTITLE2=三國志満漢全席・七
TTITLE3=三國志満漢全席・七
TTITLE4=三國志満漢全席・七
EXTD=YEAR: 1994/3/25
EXTT0=
EXTT1=
EXTT2=
EXTT3=
EXTT4=
PLAYORDER=
